<svg width="74" height="70" viewBox="0 0 74 70" fill="none" xmlns="http://www.w3.org/2000/svg">
<path d="M53.69 63L41.3 50.61L46.235 45.675L53.655 53.095L68.495 38.255L73.5 43.19L53.69 63ZM35 52.5C34.998 48.3664 36.0427 44.2997 38.0365 40.6788C40.0304 37.0579 42.9086 34.0008 46.4028 31.7925C49.897 29.5842 53.8934 28.2965 58.0196 28.0495C62.1458 27.8025 66.2673 28.6043 70 30.38V7C70 3.15 66.85 0 63 0H7C3.15 0 0 3.15 0 7V70L14 56H35C35 55.405 35.035 54.845 35.105 54.25C35.0341 53.6694 34.999 53.0849 35 52.5V52.5Z" fill="#4BB543"/>
</svg>
