<svg width="23" height="23" viewBox="0 0 23 23" fill="none" xmlns="http://www.w3.org/2000/svg">
<path d="M13.7714 1.51224C12.6933 1.2118 11.8509 2.01536 11.5505 2.7643C11.2055 3.6268 10.8993 4.23199 10.5356 4.95505C10.2731 5.47385 10.0177 5.99619 9.76942 6.52192C9.08661 7.9738 8.40667 8.90242 7.91073 9.46161C7.73046 9.66764 7.53591 9.86074 7.32855 10.0395C7.28147 10.0799 7.23305 10.1188 7.18336 10.1559L7.16036 10.1732L4.46936 11.7587C3.8868 12.1024 3.44406 12.6405 3.219 13.2783C2.99394 13.9162 3.00097 14.6129 3.23886 15.2461L3.98636 17.2356C4.13984 17.6443 4.38439 18.0127 4.70145 18.3129C5.01852 18.613 5.39977 18.837 5.8163 18.9678L13.5155 21.3857C13.9711 21.5288 14.4507 21.5798 14.9262 21.5355C15.4017 21.4912 15.8636 21.3526 16.2849 21.1277C16.7062 20.9029 17.0785 20.5963 17.38 20.226C17.6815 19.8556 17.9061 19.4288 18.0408 18.9707L20.0015 12.2906C20.1273 11.8619 20.1514 11.4097 20.072 10.97C19.9925 10.5303 19.8117 10.1152 19.5438 9.75759C19.2759 9.39999 18.9283 9.10975 18.5287 8.9099C18.1291 8.71005 17.6884 8.6061 17.2415 8.6063H15.252C15.3469 8.27999 15.4432 7.91774 15.5324 7.54255C15.7207 6.73467 15.8817 5.81324 15.8659 5.04417C15.8529 4.32974 15.7796 3.57936 15.4864 2.94255C15.1715 2.25974 14.621 1.74655 13.7729 1.5108L13.7714 1.51224ZM7.15605 10.1775L7.15317 10.1789L7.15605 10.1775Z" fill="#EEEEEE"/>
</svg>
