<svg width="57" height="47" viewBox="0 0 57 47" fill="none" xmlns="http://www.w3.org/2000/svg">
<path d="M51.8763 16.9474H35.7152L38.1484 6.42676L38.225 5.69016C38.225 4.74626 37.7898 3.87146 37.0984 3.24996L34.3835 0.832764L17.5311 16.0035C16.5834 16.8323 16.02 17.9833 16.02 19.2495V42.2703C16.02 44.8024 18.325 46.8743 21.1423 46.8743H44.1925C46.3185 46.8743 48.1369 45.7234 48.9053 44.0659L56.6398 27.8362C56.8704 27.3067 56.9984 26.7542 56.9984 26.1557V21.5515C56.9984 19.0192 54.6933 16.9474 51.8763 16.9474ZM51.8763 26.1557L44.1925 42.2703H21.1423V19.2495L32.2577 9.25836L29.4148 21.5515H51.8763V26.1557ZM0.653076 19.2495H10.8977V46.8743H0.653076V19.2495Z" fill="#F8F8F8"/>
</svg>
