<svg width="19" height="19" viewBox="0 0 19 19" fill="none" xmlns="http://www.w3.org/2000/svg">
<path d="M0.75 4.25C0.75 3.32174 1.11875 2.4315 1.77513 1.77513C2.4315 1.11875 3.32174 0.75 4.25 0.75H14.75C15.6783 0.75 16.5685 1.11875 17.2249 1.77513C17.8813 2.4315 18.25 3.32174 18.25 4.25V14.75C18.25 15.6783 17.8813 16.5685 17.2249 17.2249C16.5685 17.8813 15.6783 18.25 14.75 18.25H4.25C3.32174 18.25 2.4315 17.8813 1.77513 17.2249C1.11875 16.5685 0.75 15.6783 0.75 14.75V4.25Z" stroke="#E9E9E9" stroke-width="1.5" stroke-linecap="round" stroke-linejoin="round"/>
<path d="M6.4375 8.625C7.64562 8.625 8.625 7.64562 8.625 6.4375C8.625 5.22938 7.64562 4.25 6.4375 4.25C5.22938 4.25 4.25 5.22938 4.25 6.4375C4.25 7.64562 5.22938 8.625 6.4375 8.625Z" stroke="#E9E9E9" stroke-width="1.5" stroke-linecap="round" stroke-linejoin="round"/>
<path d="M11.7103 10.0434L4.25 18.25H14.8664C15.7638 18.25 16.6244 17.8935 17.259 17.259C17.8935 16.6244 18.25 15.7638 18.25 14.8664V14.75C18.25 14.3423 18.0969 14.1856 17.8213 13.8838L14.295 10.0381C14.1307 9.85887 13.9307 9.71582 13.708 9.61812C13.4853 9.52042 13.2447 9.47021 13.0015 9.47071C12.7583 9.4712 12.5178 9.52238 12.2955 9.62099C12.0732 9.71959 11.8739 9.86345 11.7103 10.0434V10.0434Z" stroke="#E9E9E9" stroke-width="1.5" stroke-linecap="round" stroke-linejoin="round"/>
</svg>
