<svg width="181" height="145" viewBox="0 0 181 145" fill="none" xmlns="http://www.w3.org/2000/svg">
<g clip-path="url(#clip0_219_54)">
<path d="M0 43.9531C0 41.8857 0.608895 39.875 1.75004 38.1475L23.1199 6.05205C24.3592 4.189 26.0392 2.6616 28.0104 1.60572C29.9816 0.549851 32.1828 -0.00174721 34.4183 4.15756e-06H146.582C151.135 4.15756e-06 155.349 2.27158 157.866 6.05205L179.247 38.1475C180.378 39.875 181 41.8857 181 43.9531C181 49.7021 176.334 54.375 170.593 54.375H10.4188C4.66641 54.375 0 49.7021 0 43.9531ZM18.1 63.4375H36.2V108.75H90.5V63.4375H108.6V131.406C108.6 138.911 102.52 145 95.025 145H31.675C24.1776 145 18.1 138.911 18.1 131.406V63.4375ZM144.8 63.4375H162.9V135.937C162.9 140.95 158.856 145 153.85 145C148.844 145 144.8 140.95 144.8 135.937V63.4375Z" fill="#EEEEEE"/>
</g>
<defs>
<clipPath id="clip0_219_54">
<rect width="181" height="145" fill="white"/>
</clipPath>
</defs>
</svg>
