<svg width="128" height="145" viewBox="0 0 128 145" fill="none" xmlns="http://www.w3.org/2000/svg">
<path d="M94.8599 52.2105C104.199 58.883 115.64 62.809 127.996 62.809V39.044C125.658 39.0445 123.325 38.8005 121.037 38.316V57.0225C108.682 57.0225 97.2424 53.097 87.9014 46.425V94.923C87.9014 119.185 68.2234 138.85 43.9514 138.85C34.8949 138.85 26.4769 136.114 19.4844 131.421C27.4654 139.577 38.5954 144.637 50.9084 144.637C75.1824 144.637 94.8609 124.971 94.8609 100.708V52.2105H94.8599V52.2105ZM103.445 28.2345C98.6719 23.023 95.5379 16.288 94.8599 8.84202V5.78552H88.2654C89.9254 15.249 95.5874 23.334 103.444 28.2345H103.445ZM34.8364 112.804C32.1698 109.309 30.7284 105.034 30.7349 100.639C30.7349 89.5425 39.7354 80.5455 50.8399 80.5455C52.909 80.5445 54.9659 80.862 56.9384 81.487V57.1905C54.6334 56.875 52.3074 56.7405 49.9824 56.79V75.701C48.009 75.0755 45.951 74.7581 43.8809 74.76C32.7769 74.76 23.7769 83.756 23.7769 94.8535C23.7769 102.701 28.2754 109.494 34.8364 112.804Z" fill="#FF004F"/>
<path d="M87.902 46.4245C97.2435 53.0965 108.682 57.022 121.038 57.022V38.3155C114.141 36.847 108.035 33.245 103.445 28.2345C95.5875 23.3335 89.926 15.2485 88.266 5.78552H70.9445V100.707C70.905 111.773 61.92 120.733 50.8395 120.733C44.3105 120.733 38.5095 117.623 34.836 112.803C28.276 109.494 23.777 102.7 23.777 94.854C23.777 83.7575 32.777 74.7605 43.881 74.7605C46.0085 74.7605 48.059 75.0915 49.9825 75.7015V56.7905C26.1365 57.283 6.95898 76.757 6.95898 100.708C6.95898 112.664 11.7345 123.502 19.4855 131.422C26.478 136.114 34.8955 138.852 43.9525 138.852C68.225 138.852 87.9025 119.184 87.9025 94.923V46.425H87.902V46.4245Z" fill="black"/>
<path d="M121.037 38.315V33.258C114.818 33.2674 108.721 31.5266 103.445 28.2345C108.116 33.3456 114.266 36.8702 121.037 38.316V38.315ZM88.265 5.785C88.1068 4.8808 87.9853 3.97055 87.901 3.0565V0H63.984V94.9225C63.946 105.988 54.961 114.948 43.88 114.948C40.7386 114.952 37.6402 114.218 34.835 112.804C38.5085 117.623 44.3095 120.732 50.8385 120.732C61.9185 120.732 70.9045 111.773 70.9435 100.707V5.7855H88.265V5.785ZM49.983 56.79V51.4055C47.9845 51.1323 45.9696 50.9957 43.9525 50.9965C19.6775 50.9965 0 70.6635 0 94.9225C0 110.132 7.7335 123.536 19.4855 131.421C11.7345 123.502 6.959 112.663 6.959 100.707C6.959 76.757 26.136 57.283 49.983 56.7905V56.79Z" fill="#00F2EA"/>
</svg>
