<?xml version="1.0" encoding="UTF-8" standalone="no"?>
<!DOCTYPE svg PUBLIC "-//W3C//DTD SVG 1.1//EN" "http://www.w3.org/Graphics/SVG/1.1/DTD/svg11.dtd">
<svg width="100%" height="100%" viewBox="0 0 230 157" version="1.1" xmlns="http://www.w3.org/2000/svg" xmlns:xlink="http://www.w3.org/1999/xlink" xml:space="preserve" xmlns:serif="http://www.serif.com/" style="fill-rule:evenodd;clip-rule:evenodd;stroke-linejoin:round;stroke-miterlimit:2;">
    <g transform="matrix(1,0,0,1,-99.5321,-87.3653)">
        <g transform="matrix(1,0,0,1,37,35)">
            <g transform="matrix(1,0,0,1,265.667,145.627)">
                <path d="M0,57.939C-0.659,58.133 -1.175,57.817 -1.734,57.427C-3.878,55.93 -6.088,54.531 -8.54,53.568L-8.541,53.568C-9.157,53.446 -9.743,53.271 -10.108,52.698L-10.125,52.698L-10.115,52.689L-10.125,52.698C-10.127,52.691 -10.129,52.688 -10.131,52.681C-10.202,52.646 -10.316,52.601 -10.312,52.584C-10.273,52.426 -10.204,52.463 -10.131,52.681C-10.126,52.684 -10.12,52.687 -10.115,52.689C-10.113,52.692 -10.11,52.694 -10.108,52.698C-9.287,52.726 -8.404,52.413 -7.712,53.14C-3.506,54.609 0.77,55.718 5.858,55.528C3.682,56.786 1.852,57.394 0,57.939M-168.482,53.592C-170.857,54.563 -172.994,55.973 -175.102,57.392C-175.951,57.964 -176.613,58.104 -177.503,57.755C-179.11,57.125 -180.732,56.529 -182.339,55.74C-177.669,55.717 -173.274,54.512 -168.912,53.14C-168.513,52.674 -168.016,52.599 -167.283,52.818C-167.572,53.329 -168,53.494 -168.482,53.592M20.924,-0.162C20.89,1.957 21.016,4.064 21.565,6.126C22.265,8.384 22.367,10.637 21.501,12.881C21.352,14.144 21.204,15.406 21.056,16.669L21.055,16.67L21.056,16.67C21.119,17.746 21.225,18.828 20.606,19.807C20.404,22.353 19.852,24.828 19.124,27.269C19.184,27.821 19.123,28.342 18.723,28.772C18.454,30.594 18.012,32.368 17.271,34.061C17.136,35.085 16.843,36.056 16.304,36.945C16.23,37.206 16.156,37.467 16.082,37.728C15.362,39.766 14.497,41.738 13.381,43.594C12.147,46.548 10.287,49.144 8.623,51.85C8.006,52.855 6.896,53.161 5.9,52.992C0.895,52.142 -4.204,51.809 -9.092,50.303C-10.842,49.764 -12.607,49.276 -14.366,48.765C-15.555,48.412 -16.856,48.377 -17.865,47.518C-17.865,47.517 -17.865,47.518 -17.866,47.517C-21.142,46.728 -24.185,45.3 -27.258,43.985C-36.02,40.233 -44.381,35.758 -51.802,29.701C-54.768,27.279 -57.627,24.727 -60.533,22.231C-62.785,20.296 -64.571,17.929 -66.533,15.726C-67.201,14.976 -67.811,14.005 -69.123,14.647C-69.787,14.971 -70.13,14.37 -70.454,13.945C-71.188,12.981 -72.058,12.177 -73.044,11.477C-73.599,11.082 -74.158,10.871 -74.831,11.044C-75.419,11.746 -75.722,12.071 -74.724,13.042C-70.889,16.773 -66.481,19.802 -62.552,23.424C-55.886,29.568 -49.106,35.627 -41.1,40.08C-40.349,40.497 -39.389,40.491 -38.568,41.447C-40.753,41.23 -42.506,40.371 -44.379,40.022C-50.387,38.903 -56.363,37.623 -62.429,36.823C-66.375,36.303 -70.324,35.881 -74.307,35.922C-77.971,35.96 -81.596,36.371 -85.173,37.186C-85.712,37.309 -86.278,37.318 -86.831,37.38L-86.832,37.379C-87.551,38.05 -88.422,37.814 -89.258,37.783C-94.606,36.407 -100.033,35.603 -105.561,35.952C-110.238,36.248 -114.907,36.694 -119.521,37.582C-124.749,38.589 -130.025,39.349 -135.195,40.656C-135.541,40.744 -135.956,40.821 -136.38,40.43C-133.749,38.607 -130.923,37.154 -128.343,35.313C-125.415,33.223 -122.79,30.782 -120.022,28.507C-115.78,25.018 -111.981,21.018 -107.498,17.797C-105.367,16.266 -103.865,14.003 -101.687,12.463C-100.8,11.836 -101.996,11.481 -102.245,11.003L-102.245,11.002C-103.77,10.831 -104.466,12.071 -105.406,12.878C-106.355,13.694 -106.88,15.158 -108.679,14.52C-109.251,14.317 -109.895,15.133 -110.348,15.72C-115.379,22.243 -121.87,27.203 -128.326,32.14C-135.858,37.9 -144.383,41.943 -153.157,45.451C-154.183,45.861 -155.149,46.496 -156.312,46.516C-156.314,46.517 -156.315,46.517 -156.317,46.518C-161.24,48.619 -166.395,49.967 -171.579,51.229C-174.531,51.948 -177.533,52.314 -180.551,52.583C-181.104,52.632 -181.643,52.644 -182.196,52.796C-183.833,53.245 -184.726,52.94 -185.644,51.56C-187.367,48.972 -188.996,46.325 -190.346,43.516C-191.356,41.538 -192.431,39.589 -192.999,37.418L-192.86,37.358C-192.86,37.354 -192.861,37.349 -192.861,37.345C-192.906,37.37 -192.946,37.402 -192.999,37.418C-194.373,34.492 -195.086,31.369 -195.724,28.225C-196.053,27.631 -196.324,27.023 -196.199,26.317C-197.013,23.882 -197.29,21.341 -197.69,18.824C-197.828,17.96 -197.993,17.099 -198.146,16.237C-199.054,15.231 -198.521,14.011 -198.616,12.891C-198.687,12.045 -198.583,11.184 -198.556,10.33L-198.556,10.329C-198.395,8.603 -198.233,6.877 -198.071,5.151C-198.179,4.331 -198.096,3.545 -197.669,2.818C-197.851,1.35 -197.238,-0.183 -198.028,-1.603C-200.354,4.197 -200.335,10.273 -199.922,16.339C-199.51,22.406 -198.08,28.304 -196.354,34.132C-194.364,40.852 -191.078,46.956 -187.505,52.916C-186.623,54.388 -185.608,56.079 -184.204,56.87C-181.875,58.181 -179.186,58.854 -176.64,59.773C-176.096,59.969 -175.553,59.927 -175.056,59.539C-170.851,56.256 -165.857,54.466 -161.117,52.195C-160.187,51.75 -159.016,51.554 -158.348,50.864C-156.892,49.361 -155.01,48.783 -153.219,47.981C-150.167,46.614 -146.894,45.765 -143.986,44.059C-143.342,43.681 -142.653,43.513 -141.919,43.671C-141.271,43.811 -140.622,43.731 -140.03,43.547C-135.22,42.05 -130.227,41.467 -125.311,40.491C-116.057,38.655 -106.755,37.66 -97.312,38.194C-94.769,38.338 -92.26,38.536 -89.796,39.298C-88.885,39.58 -87.818,39.606 -86.802,39.239C-84.998,38.586 -83.094,38.415 -81.195,38.221C-76.977,37.792 -72.774,37.922 -68.544,38.16C-63.754,38.429 -59.043,39.145 -54.342,39.994C-48.39,41.069 -42.438,42.158 -36.508,43.346C-35.579,43.533 -34.723,43.09 -33.742,43.568C-30.233,45.277 -26.603,46.738 -23.075,48.411C-19.217,50.24 -15.545,52.435 -11.605,54.118C-8.235,55.558 -4.984,57.268 -1.992,59.418C-1.349,59.88 -0.722,59.978 0.025,59.694C2.407,58.79 4.799,57.912 7.194,57.044C7.764,56.837 8.073,56.475 8.321,55.916C8.607,55.271 9.073,54.704 9.479,54.116C13.438,48.376 16.864,42.356 19.016,35.688C20.806,30.139 22.214,24.482 22.851,18.684C23.559,12.231 23.338,5.785 21.984,-0.592C21.517,-0.981 21.44,-1.48 21.576,-2.039L21.577,-2.038C21.577,-2.039 21.576,-2.039 21.576,-2.039L21.572,-2.03L21.571,-2.03C20.778,-1.609 20.935,-0.844 20.924,-0.162" style="fill:rgb(215,215,215);fill-rule:nonzero;stroke:rgb(215,215,215);stroke-width:6px;"/>
            </g>
            <g>
                <g>
                    <g transform="matrix(1,0,0,1,99.2616,131.938)">
                        <path d="M0,-30.373C-9.186,-26.281 -16.998,-20.308 -23.643,-12.783C-23.62,-12.494 -23.74,-12.304 -24.024,-12.226C-24.043,-12.072 -24.113,-11.946 -24.232,-11.848C-24.195,-11.581 -24.324,-11.433 -24.571,-11.367L-24.588,-11.336C-24.542,-11.033 -24.679,-10.86 -24.972,-10.8L-24.982,-10.785C-24.952,-10.362 -25.195,-10.116 -25.533,-9.931C-28.513,-5.332 -30.152,-0.234 -31.082,5.117C-31.379,6.829 -31.701,8.561 -31.196,10.3C-30.09,10.608 -29.377,10.403 -29.339,9.05C-29.317,8.286 -29.395,7.475 -28.934,6.777C-28.969,5.174 -28.472,3.703 -27.955,1.835C-27.098,3.301 -26.47,4.379 -25.838,5.454C-22.947,10.375 -18.298,12.529 -12.976,13.616C-12.042,13.807 -11.1,13.954 -10.161,14.121C-5.372,13.983 -0.667,13.358 3.857,11.686C8.31,10.04 12.228,7.495 15.921,4.562C16.603,4.02 17.316,3.516 18.015,2.995C19.907,0.843 22.123,-0.99 23.953,-3.212C26.293,-6.053 28.187,-9.183 30.131,-12.286C30.744,-13.373 31.353,-14.462 31.972,-15.545C32.499,-16.464 32.714,-17.432 32.475,-18.479C31.453,-18.735 30.809,-18.243 30.299,-17.421C29.923,-16.818 29.801,-16.065 29.213,-15.589C24.618,-6.24 17.895,1.165 8.968,6.553C8.701,6.714 8.387,6.798 8.095,6.919C5.501,8.777 2.774,9.947 -0.535,9.007C-2.271,8.515 -4.181,9.187 -5.907,8.383C-11.916,7.862 -17.13,5.705 -21.07,0.97C-21.722,0.187 -22.455,-0.571 -22.666,-1.636C-23.686,-2.697 -23.407,-3.938 -23.106,-5.142C-23.108,-5.154 -23.109,-5.166 -23.11,-5.178C-23.737,-5.722 -24.164,-5.17 -24.643,-5.008C-25.122,-4.125 -24.915,-3.146 -25.036,-2.214C-23.191,2.657 -19.681,5.931 -15.08,8.159C-14.372,8.502 -13.671,8.857 -12.966,9.207C-10.46,9.792 -7.969,10.449 -5.41,10.777L-5.409,10.777C-4.769,10.778 -4.128,10.779 -3.488,10.781L-3.487,10.781L-3.487,10.78C-3.103,10.725 -2.719,10.672 -2.38,10.951C-2.677,11.315 -3.07,11.236 -3.45,11.213C-4.223,11.317 -4.935,11.789 -5.758,11.594C-9.303,11.992 -12.789,11.911 -16.09,10.323C-21.22,8.964 -24.101,5.315 -25.906,0.61C-26.187,-0.121 -26.203,-0.94 -25.898,-1.713C-26.639,-3.178 -26.106,-4.4 -25.167,-5.544C-24.61,-7.031 -23.854,-8.397 -22.733,-9.541C-19.927,-13.892 -16.116,-17.277 -12.093,-20.424C-6.973,-24.428 -1.319,-27.527 4.773,-29.795C10.676,-31.993 16.71,-33.755 22.863,-35.122C24.172,-35.413 24.868,-35.178 25.504,-33.925C27.305,-30.376 29.263,-26.906 31.16,-23.404C32.097,-21.938 33.035,-20.473 33.972,-19.007C37.508,-14.013 41.046,-9.021 44.578,-4.024C45.679,-2.467 47.027,-1.089 47.929,0.611L47.929,0.612C49.044,1.312 49.527,2.534 50.315,3.504C52.063,5.407 53.81,7.309 55.557,9.211L55.557,9.212C55.806,9.309 55.98,9.474 56.047,9.736C56.05,9.73 56.051,9.725 56.054,9.719C58.735,11.87 61.162,14.351 64.227,16.002C65.76,15.647 64.899,14.372 65.176,13.534C64.711,11.163 63.531,9.056 62.619,6.861C59.93,0.386 57.13,-6.042 54.321,-12.467C53.308,-14.785 52,-16.942 50.225,-18.985C49.583,-18.279 49.73,-17.702 50.042,-17.151C55.238,-7.959 58.212,2.216 62.794,11.679L62.794,11.68C63.263,12.082 63.52,12.58 63.522,13.333C62.834,13.176 62.512,12.73 62.253,12.207C59.144,8.984 56.964,5.046 54.113,1.627C50.41,-2.814 47.914,-7.986 45.141,-12.991C43.291,-16.33 41.467,-19.686 39.901,-23.173C39.902,-23.174 39.902,-23.175 39.903,-23.176C39.902,-23.175 39.901,-23.174 39.9,-23.174C39.083,-24.8 38.272,-26.431 37.697,-28.166C37.697,-28.166 37.697,-28.167 37.698,-28.167L37.697,-28.167C37.002,-28.511 36.344,-28.949 35.547,-29.043L35.546,-29.044L35.546,-29.042C35.522,-28.9 35.512,-28.757 35.518,-28.612C35.977,-28.047 36.289,-27.421 36.331,-26.682L36.33,-26.682C37.488,-24.606 38.481,-22.457 39.244,-20.204C41.638,-15.799 44.033,-11.395 46.426,-6.991L46.427,-6.991C47.334,-6.036 47.722,-4.775 48.38,-3.673C49.169,-2.542 49.958,-1.411 50.747,-0.28C51.862,1.118 52.977,2.517 54.279,4.149C52.538,3.319 51.737,2.379 50.75,0.22L50.749,0.219C49.41,-0.59 48.829,-2.036 47.892,-3.184C47.236,-4.129 46.356,-4.922 45.941,-6.033C42.748,-10.23 39.834,-14.622 36.904,-19.003C35.66,-20.498 34.578,-22.098 33.744,-23.86C33.118,-24.761 32.473,-25.649 32.062,-26.677L32.062,-26.678L32.062,-26.677C31.114,-27.86 30.434,-29.2 29.777,-30.554L29.778,-30.554C29.108,-31.706 28.423,-32.85 27.776,-34.015C27.478,-34.552 27.089,-35.105 27.506,-35.765C27.763,-36.286 27.701,-36.834 27.65,-37.384C27.594,-37.993 27.413,-38.536 26.659,-38.332C25.546,-38.029 25.125,-38.72 24.665,-39.51C23.442,-41.612 22.176,-43.689 20.927,-45.776C20.665,-45.976 20.403,-46.175 20.142,-46.375C19.937,-46.172 19.733,-45.97 19.528,-45.768C20.41,-42.938 22.401,-40.649 23.451,-37.9C22.745,-37.299 21.919,-37.311 21.159,-37.135C13.92,-35.461 6.798,-33.402 0,-30.373" style="fill:rgb(215,215,215);fill-rule:nonzero;stroke:rgb(215,215,215);stroke-width:6px;"/>
                    </g>
                    <g transform="matrix(1,0,0,1,235.86,148.43)">
                        <path d="M0,-63.849C-0.009,-63.854 -0.017,-63.857 -0.026,-63.862C-0.305,-63.677 -0.583,-63.493 -0.862,-63.308C-0.935,-63.157 -1.009,-63.005 -1.082,-62.854C-1.082,-62.853 -1.083,-62.852 -1.083,-62.852C-1.082,-62.852 -1.082,-62.853 -1.081,-62.854C-1.078,-62.606 -1.214,-62.466 -1.435,-62.389L-1.45,-62.366L-1.451,-62.366L-1.45,-62.366C-1.585,-62.18 -1.72,-61.995 -1.855,-61.81C-2.912,-60.034 -3.967,-58.257 -5.029,-56.485C-5.594,-55.542 -6.018,-54.417 -7.526,-54.834C-8.051,-54.979 -8.142,-54.488 -8.177,-54.082C-8.218,-53.603 -8.347,-53.158 -8.62,-52.759C-8.101,-52.419 -7.188,-52.237 -8.062,-51.338C-8.719,-49.815 -9.53,-48.378 -10.489,-47.024L-10.489,-47.023C-10.993,-45.809 -11.637,-44.674 -12.424,-43.62C-12.947,-42.561 -13.431,-41.476 -14.318,-40.648C-15.07,-38.692 -16.272,-37.023 -17.626,-35.452C-20.553,-30.89 -23.636,-26.436 -26.876,-22.09L-26.875,-22.09C-27.525,-21.136 -28.174,-20.182 -28.824,-19.228C-29.838,-17.861 -30.709,-16.373 -32.114,-15.336C-32.098,-14.237 -33.182,-13.813 -33.571,-12.963C-34.01,-12.13 -34.653,-11.497 -35.472,-11.039C-35.472,-11.035 -35.473,-11.031 -35.474,-11.027L-35.48,-11.033L-35.474,-11.027C-35.479,-11.025 -35.481,-11.024 -35.486,-11.022C-35.521,-10.954 -35.566,-10.84 -35.585,-10.844C-35.739,-10.879 -35.701,-10.949 -35.486,-11.022C-35.484,-11.025 -35.482,-11.03 -35.48,-11.033C-35.477,-11.035 -35.475,-11.037 -35.472,-11.039C-35.47,-11.055 -35.466,-11.07 -35.464,-11.086C-35.503,-11.086 -35.544,-11.097 -35.591,-11.134C-35.538,-11.131 -35.496,-11.147 -35.452,-11.16C-35.323,-12.12 -34.61,-12.732 -34.037,-13.427C-33.542,-14.208 -32.991,-14.932 -32.131,-15.351C-31.642,-17.104 -30.299,-18.298 -29.282,-19.706C-28.613,-20.8 -28.234,-22.067 -27.317,-23.013C-24.818,-27.67 -22.319,-32.328 -19.82,-36.985C-18.893,-39.047 -17.967,-41.109 -17.041,-43.171L-17.041,-43.172C-16.95,-43.754 -16.759,-44.285 -16.285,-44.674C-16.295,-44.973 -16.305,-45.273 -16.315,-45.573C-16.974,-45.276 -17.634,-44.98 -18.293,-44.683C-18.294,-44.683 -18.294,-44.684 -18.294,-44.684C-18.294,-44.683 -18.294,-44.683 -18.293,-44.682C-18.991,-42.976 -19.598,-41.226 -20.638,-39.678C-22.294,-35.529 -24.754,-31.788 -26.688,-27.785C-30.424,-20.048 -35.918,-13.509 -40.855,-6.588C-41.502,-5.68 -42.236,-4.839 -43.145,-4.172L-43.145,-4.173C-43.204,-3.931 -43.356,-3.807 -43.604,-3.802C-43.688,-3.736 -43.773,-3.67 -43.857,-3.604C-43.793,-3.691 -43.73,-3.777 -43.667,-3.865L-43.668,-3.865C-43.669,-3.88 -43.668,-3.893 -43.669,-3.907C-43.687,-3.911 -43.697,-3.898 -43.716,-3.907C-43.699,-3.911 -43.686,-3.921 -43.67,-3.926C-43.713,-4.455 -43.65,-4.947 -43.171,-5.294C-43.149,-5.445 -43.107,-5.589 -43.044,-5.727L-43.044,-5.728C-43.044,-5.728 -43.044,-5.727 -43.045,-5.727C-43.071,-5.994 -42.935,-6.166 -42.715,-6.288C-40.041,-12.679 -37.334,-19.056 -34.71,-25.467C-33.621,-28.129 -32.486,-30.755 -30.943,-33.19C-30.731,-33.525 -30.555,-33.888 -30.404,-34.254C-30.246,-34.635 -30.183,-35.05 -30.659,-35.256C-31.025,-35.415 -31.275,-35.121 -31.447,-34.872C-32.624,-33.166 -33.817,-31.463 -34.669,-29.564C-36.105,-26.366 -37.618,-23.195 -38.881,-19.928C-40.835,-14.871 -43.204,-9.994 -45.216,-4.964C-45.784,-3.545 -46.322,-2.143 -46.075,-0.575C-45.896,-0.379 -45.716,-0.183 -45.537,0.013C-44.263,-0.799 -43.151,-1.869 -41.695,-2.389C-41.509,-2.756 -41.197,-2.924 -40.8,-2.959L-40.813,-2.975C-40.813,-2.976 -40.814,-2.976 -40.815,-2.977L-40.815,-2.978L-40.814,-2.978C-39.692,-4.404 -38.305,-5.557 -36.947,-6.74C-35.003,-8.803 -33.058,-10.866 -31.114,-12.93C-30.248,-14.124 -29.367,-15.305 -28.301,-16.334L-28.301,-16.335C-23.654,-22.874 -19.008,-29.413 -14.361,-35.953C-13.551,-37.063 -13.123,-38.434 -12.038,-39.356C-12.03,-39.514 -11.982,-39.66 -11.896,-39.793C-11.895,-39.793 -11.895,-39.793 -11.895,-39.794L-11.896,-39.793C-11.93,-40.072 -11.802,-40.255 -11.558,-40.372C-9.695,-43.811 -7.819,-47.243 -5.978,-50.694C-5.557,-51.483 -5.075,-51.955 -4.1,-51.735C9.401,-48.688 22.473,-44.629 33.28,-35.442C36.621,-32.601 39.883,-29.639 42.231,-25.849C43.37,-24.668 44.136,-23.269 44.644,-21.719C44.643,-21.718 44.643,-21.718 44.643,-21.717L44.644,-21.718C45.655,-20.688 45.685,-19.512 45.157,-18.253C45.694,-17.629 45.586,-16.91 45.355,-16.24C43.68,-11.364 40.762,-7.681 35.588,-6.203L35.587,-6.203C32.507,-4.754 29.263,-4.477 25.927,-4.849C25.927,-4.85 25.926,-4.85 25.926,-4.85C25.927,-4.85 25.927,-4.85 25.927,-4.849C25.239,-4.709 24.579,-4.788 23.949,-5.101C23.495,-5.166 23.042,-5.231 22.589,-5.295C22.209,-5.265 21.82,-5.19 21.509,-5.521C21.583,-5.592 21.66,-5.636 21.739,-5.672C21.732,-5.682 21.725,-5.686 21.719,-5.697C21.728,-5.687 21.739,-5.687 21.748,-5.678C22.023,-5.798 22.321,-5.74 22.615,-5.707L24.047,-5.702C24.358,-5.705 24.669,-5.709 24.981,-5.712C27.366,-6.211 29.751,-6.711 32.136,-7.211C33.966,-8.295 36.049,-8.897 37.757,-10.222C40.417,-12.285 42.648,-14.7 44.12,-17.76C44.143,-19 44.749,-20.243 44.096,-21.479C43.603,-21.665 43.178,-22.091 42.414,-21.852C42.775,-20.403 43.049,-18.885 41.778,-17.66C39.831,-13.945 36.705,-11.598 32.928,-9.99C30.409,-8.917 27.813,-8.193 25.062,-8.092C25.061,-8.092 25.059,-8.092 25.058,-8.091C22.222,-7.463 19.323,-7.194 16.448,-7.258C14.582,-7.299 12.874,-8.331 11.375,-9.525C11.235,-9.51 11.123,-9.558 11.038,-9.67C10.861,-9.804 10.676,-9.925 10.484,-10.035C10.668,-9.913 10.853,-9.791 11.038,-9.669C10.764,-9.656 10.594,-9.8 10.484,-10.035C3.338,-14.069 -2.377,-19.605 -6.704,-26.557C-7.917,-28.506 -9.275,-30.389 -10.088,-32.57C-10.409,-33.077 -10.753,-33.572 -11.047,-34.095C-11.473,-34.853 -12.101,-35.147 -12.946,-35.02C-13.51,-34.222 -13.379,-33.449 -12.923,-32.644C-12.279,-31.51 -11.684,-30.348 -11.068,-29.197C-10.23,-27.85 -9.411,-26.49 -8.552,-25.157C-6.134,-21.402 -3.384,-17.925 -0.001,-14.977C0.532,-14.513 0.975,-13.947 1.46,-13.428C3.733,-11.815 5.871,-10.024 8.214,-8.495C14.264,-4.547 20.931,-2.716 28.087,-2.448C28.325,-2.439 28.561,-2.392 28.798,-2.363C30.208,-2.576 31.631,-2.725 33.027,-3.011C39.351,-4.306 44.032,-7.72 46.681,-13.718C46.776,-13.934 46.917,-14.131 47.054,-14.325C47.093,-14.379 47.195,-14.388 47.375,-14.461C47.996,-12.258 48.617,-10.078 48.505,-7.763L48.505,-7.762C48.873,-6.865 49.026,-5.744 50.425,-5.921L50.425,-5.918C50.426,-5.918 50.426,-5.919 50.426,-5.919C50.56,-6.023 50.693,-6.127 50.827,-6.231L50.828,-6.23C50.828,-6.231 50.827,-6.231 50.827,-6.231C50.877,-6.969 50.927,-7.708 50.978,-8.444C50.911,-11.109 50.042,-13.617 49.355,-16.145C48.002,-21.126 45.782,-25.692 42.42,-29.666C36.718,-36.406 29.853,-41.657 21.985,-45.605C14.383,-49.421 6.26,-51.722 -1.978,-53.665C-2.717,-53.84 -3.501,-53.877 -4.14,-54.411C-2.996,-57.015 -1.307,-59.19 -0.377,-61.749C-0.453,-62.052 -0.328,-62.247 -0.048,-62.357C0.077,-62.446 0.126,-62.566 0.1,-62.717C0.067,-63.095 0.033,-63.472 0,-63.849" style="fill:rgb(215,215,215);fill-rule:nonzero;stroke:rgb(215,215,215);stroke-width:6px;"/>
                    </g>
                </g>
                <g>
                    <g transform="matrix(1,0,0,1,119.209,78.4158)">
                        <path d="M0,6.947C0.06,6.941 0.113,6.951 0.17,6.952C0.136,6.692 0.108,6.41 0.37,6.348C0.98,6.205 1.308,6.68 1.571,7.159C3.54,8.614 5.1,10.503 6.873,12.167C7.411,12.671 7.89,13.235 8.602,12.428C8.602,12.428 8.602,12.427 8.603,12.427C8.612,12.409 8.62,12.389 8.629,12.371C8.609,12.363 8.596,12.349 8.576,12.341C8.421,11.943 8.421,11.506 8.707,11.225C10.045,9.91 9.403,8.688 8.64,7.411C7.471,5.453 6.402,3.449 6.606,1.046C6.644,0.997 6.693,0.965 6.737,0.926C6.475,0.738 6.257,0.41 6.611,0.275C6.92,0.157 7.11,0.42 7.233,0.715C8.559,0.983 8.988,2.294 9.903,3.039C10.25,3.444 10.662,3.76 11.175,3.927C11.851,4.097 12.349,3.857 12.346,3.156C12.331,-0 12.672,-3.138 12.755,-6.288L12.754,-6.288C10.996,-3.505 11.931,-0.297 11.455,3.099C10.219,1.802 9.225,0.803 8.285,-0.245C7.804,-0.781 7.359,-1.343 6.741,-1.728C6.231,-2.045 5.627,-2.107 5.135,-1.852C4.544,-1.546 4.655,-0.905 4.794,-0.357C5.048,0.645 5.316,1.644 5.607,2.636C6.383,5.272 7.174,7.903 8.097,11C6.786,10.27 6.133,9.471 5.413,8.776C3.975,7.388 2.446,6.117 0.72,5.105C0.194,4.796 -0.406,4.311 -1.014,4.878C-1.678,5.498 -1.398,6.155 -0.904,6.755C-0.836,6.687 -0.768,6.619 -0.7,6.551C-0.714,6.59 -0.717,6.641 -0.744,6.665C-0.789,6.704 -0.849,6.726 -0.903,6.756L-0.904,6.755L-0.903,6.756C-0.916,7.173 -0.807,7.531 -0.419,7.755C-0.675,7.28 -0.379,7.092 0,6.947" style="fill:rgb(215,215,215);fill-rule:nonzero;stroke:rgb(215,215,215);stroke-width:6px;"/>
                    </g>
                    <g transform="matrix(1,0,0,1,128.673,83.9941)">
                        <path d="M0,2.141C-1.302,0.02 -2.139,-2.247 -2.712,-4.639C-2.717,-4.643 -2.721,-4.648 -2.727,-4.652C-2.771,-4.613 -2.82,-4.582 -2.858,-4.533C-3.062,-2.129 -1.993,-0.125 -0.824,1.832C-0.061,3.11 0.582,4.332 -0.756,5.647C-1.042,5.927 -1.042,6.365 -0.888,6.763C-0.868,6.77 -0.854,6.784 -0.834,6.793C-0.701,6.53 -0.6,6.239 -0.41,6.028C1.176,4.264 1.273,4.214 0,2.141" style="fill:rgb(215,215,215);fill-rule:nonzero;stroke:rgb(215,215,215);stroke-width:6px;"/>
                    </g>
                    <g transform="matrix(1,0,0,1,130.384,73.6784)">
                        <path d="M0,8.664C-0.513,8.497 -0.924,8.181 -1.272,7.776C-2.187,7.031 -2.616,5.72 -3.942,5.453C-3.911,5.525 -3.882,5.599 -3.859,5.671C-3.063,6.507 -2.266,7.342 -1.47,8.178C-1.014,8.323 -0.618,8.539 -0.445,9.025C1.519,10.214 1.89,10.056 1.925,7.92C1.97,5.14 1.622,2.344 2.369,-0.4C2.541,-1.035 2.321,-1.494 1.58,-1.55C1.497,1.6 1.156,4.738 1.171,7.893C1.175,8.594 0.676,8.834 0,8.664" style="fill:rgb(215,215,215);fill-rule:nonzero;stroke:rgb(215,215,215);stroke-width:6px;"/>
                    </g>
                    <g transform="matrix(1,0,0,1,140.515,61.5098)">
                        <path d="M0,6.258C2.095,5.457 4.193,5.594 6.405,6.721C5.945,3.026 8.542,1.932 10.851,0.793C14.573,-1.041 18.518,-2.309 22.575,-3.208C21.788,-3.966 21.012,-4.236 19.818,-3.901C16.369,-2.933 13.016,-1.754 9.802,-0.179C7.927,0.74 6.182,1.838 5.179,3.772C4.883,4.342 4.501,4.579 3.857,4.523C-0.071,4.18 -2.991,6.014 -5.429,8.865C-5.429,8.866 -5.43,8.866 -5.43,8.867C-5.077,9.308 -5.281,9.977 -4.683,10.494C-3.985,8.095 -2.083,7.054 0,6.258" style="fill:rgb(215,215,215);fill-rule:nonzero;stroke:rgb(215,215,215);stroke-width:6px;"/>
                    </g>
                    <g transform="matrix(1,0,0,1,136.02,58.3572)">
                        <path d="M0,14.662C1.331,14.717 0.349,13.793 0.513,13.348C0.62,13.055 0.685,12.731 0.854,12.479C2.631,9.839 7.38,8.796 10.258,10.415C10.678,10.651 11.072,11.001 11.557,10.662C12.155,10.244 12.035,9.685 11.662,9.206C10.862,8.179 11.418,7.465 12.131,6.732C13.21,5.624 14.557,4.937 15.929,4.304C19.041,2.869 22.259,1.725 25.586,0.9C26.206,0.746 26.88,0.738 27.071,-0.055C23.014,0.843 19.069,2.112 15.347,3.946C13.038,5.084 10.44,6.178 10.901,9.873C8.689,8.746 6.591,8.609 4.496,9.411C2.413,10.207 0.51,11.248 -0.187,13.646C-0.785,13.129 -0.582,12.461 -0.934,12.019C-1.058,12.305 -1.261,12.583 -1.295,12.88C-1.437,14.144 -1.109,14.617 0,14.662" style="fill:rgb(215,215,215);fill-rule:nonzero;stroke:rgb(215,215,215);stroke-width:6px;"/>
                    </g>
                    <g transform="matrix(1,0,0,1,222.76,87.6705)">
                        <path d="M0,-11.653C0.325,-9.954 -0.026,-8.339 -0.138,-6.688C-0.175,-6.146 -0.231,-5.496 0.418,-5.257C0.911,-5.075 1.329,-5.434 1.693,-5.743C2.724,-6.617 3.612,-7.64 4.589,-8.569C4.954,-8.916 5.318,-9.562 5.96,-9.093C6.386,-8.783 6.36,-8.222 6.22,-7.768C5.661,-5.957 5.432,-3.994 4.264,-2.439C3.052,-0.824 2.672,0.785 3.708,2.603C3.671,2.672 3.636,2.742 3.6,2.812C4.168,3.363 4.611,3.985 5.546,2.976C7.033,1.372 8.514,-0.268 10.298,-1.575L10.299,-1.576C10.299,-1.576 10.298,-1.576 10.298,-1.575C10.356,-1.81 10.497,-1.954 10.743,-1.985C11.026,-2.2 11.309,-2.416 11.592,-2.631C11.592,-2.632 11.592,-2.632 11.593,-2.632C11.821,-3.065 12.219,-3.305 12.623,-3.539C12.44,-3.968 12.013,-3.905 11.67,-4.012C8.978,-2.693 7.181,-0.193 4.398,1.798C5.487,-1.874 6.433,-5.046 7.366,-8.221C7.545,-8.83 7.726,-9.445 7.816,-10.07C7.929,-10.863 7.52,-11.193 6.718,-11.243C5.4,-11.325 4.683,-10.563 4.06,-9.574C3.271,-8.32 2.37,-7.174 0.887,-6.426C0.887,-7.418 0.914,-8.203 0.882,-8.986C0.792,-11.262 1.105,-13.617 -0.354,-15.638L-0.355,-15.638C-0.734,-14.269 -0.247,-12.946 0,-11.653" style="fill:rgb(215,215,215);fill-rule:nonzero;stroke:rgb(215,215,215);stroke-width:6px;"/>
                    </g>
                    <g transform="matrix(1,0,0,1,221.7,89.056)">
                        <path d="M0,-15.597C0.528,-13.269 0.876,-10.927 0.357,-8.534C0.241,-8.003 0.278,-7.421 0.34,-6.873C0.492,-5.535 1.118,-5.216 2.252,-5.945C2.913,-6.37 3.465,-6.96 4.081,-7.458C5.084,-8.269 6.1,-9.064 6.893,-9.693C6.488,-8.412 6.008,-6.75 5.423,-5.126C5.217,-4.554 4.739,-4.083 4.412,-3.549C2.805,-0.931 2.809,-0.904 4.572,1.342C4.602,1.369 4.63,1.398 4.659,1.426C4.695,1.357 4.731,1.287 4.768,1.218C3.731,-0.601 4.111,-2.21 5.324,-3.824C6.492,-5.38 6.721,-7.342 7.28,-9.154C7.42,-9.607 7.445,-10.168 7.02,-10.479C6.378,-10.948 6.014,-10.302 5.649,-9.955C4.672,-9.025 3.784,-8.003 2.752,-7.128C2.388,-6.82 1.971,-6.461 1.478,-6.642C0.828,-6.882 0.885,-7.531 0.922,-8.073C1.033,-9.725 1.385,-11.339 1.06,-13.039C0.812,-14.332 0.326,-15.655 0.704,-17.023C-0.143,-16.849 -0.166,-16.329 0,-15.597" style="fill:rgb(215,215,215);fill-rule:nonzero;stroke:rgb(215,215,215);stroke-width:6px;"/>
                    </g>
                    <g transform="matrix(1,0,0,1,194.085,70.0816)">
                        <path d="M0,-11.122C2.412,-10.576 4.733,-9.785 6.912,-8.605C7.269,-8.36 7.649,-8.167 8.087,-8.105C12.092,-6.903 13.428,-5.441 13.475,-2.049C18.205,-3.773 21.914,-2.343 24.74,1.654C25.238,1.448 25.128,0.777 25.598,0.562C25.543,0.505 25.485,0.449 25.432,0.39C22.896,-2.454 19.972,-4.474 15.915,-4.039C15.224,-3.965 14.93,-4.384 14.648,-4.893C13.637,-6.72 11.985,-7.799 10.177,-8.694C7.035,-10.251 3.75,-11.403 0.386,-12.39C-0.932,-12.776 -1.904,-12.617 -2.834,-11.708L-2.833,-11.708C-2.356,-11.628 -1.86,-11.609 -1.459,-11.284C-0.998,-11.012 -0.49,-11.152 0,-11.122" style="fill:rgb(215,215,215);fill-rule:nonzero;stroke:rgb(215,215,215);stroke-width:6px;"/>
                    </g>
                    <g transform="matrix(1,0,0,1,193.679,72.1715)">
                        <path d="M0,-12.833L0.001,-12.833C2.441,-12.098 4.843,-11.255 7.19,-10.258C7.625,-10.117 8.099,-10.05 8.381,-9.621L8.381,-9.62C9.785,-9.446 10.92,-8.671 11.955,-7.822C13,-6.965 14.081,-5.996 13.024,-4.391C12.749,-3.973 12.809,-3.414 13.274,-3.111C13.748,-2.803 14.204,-3.083 14.574,-3.402C15.193,-3.937 15.843,-4.31 16.706,-4.339C19.516,-4.436 21.829,-3.367 23.791,-1.431C24.13,-1.096 24.464,-0.734 24.304,-0.181C24.202,0.168 23.853,0.618 24.407,0.81C24.856,0.965 25.356,0.816 25.745,0.478C26.422,-0.112 26.124,-0.833 26.005,-1.528C25.535,-1.313 25.644,-0.642 25.147,-0.436C22.32,-4.433 18.611,-5.863 13.882,-4.139C13.834,-7.531 12.499,-8.993 8.493,-10.194C8.056,-10.257 7.676,-10.45 7.318,-10.695C5.14,-11.875 2.819,-12.666 0.407,-13.212C-0.084,-13.241 -0.592,-13.102 -1.052,-13.374C-1.453,-13.698 -1.949,-13.718 -2.426,-13.798C-2.103,-13.554 -1.779,-13.309 -1.456,-13.065C-0.971,-12.988 -0.486,-12.91 0,-12.833" style="fill:rgb(215,215,215);fill-rule:nonzero;stroke:rgb(215,215,215);stroke-width:6px;"/>
                    </g>
                    <g transform="matrix(1,0,0,1,170.029,56.9794)">
                        <path d="M0,1.632C0.3,0.863 1.048,0.365 1.904,0.366C5.476,0.372 9.049,0.26 12.618,0.421C13.368,0.455 14.087,0.849 14.329,1.567C15.071,3.771 16.357,3.392 17.83,2.422C18.297,2.115 18.765,1.802 19.347,1.752C19.111,1.545 18.854,1.14 18.64,1.161C16.951,1.331 15.774,0.247 14.358,-0.312C9.728,-2.139 4.906,-1.893 0.146,-0.504C-1.041,0.863 -2.444,1.645 -4.333,1.233C-4.456,1.206 -4.658,1.54 -4.822,1.705L-4.822,1.706C-4.258,1.815 -3.776,2.108 -3.324,2.433C-1.896,3.456 -0.758,3.577 0,1.632" style="fill:rgb(215,215,215);fill-rule:nonzero;stroke:rgb(215,215,215);stroke-width:6px;"/>
                    </g>
                    <g transform="matrix(1,0,0,1,168.537,57.691)">
                        <path d="M0,3.425C0.808,3.804 1.466,3.45 1.732,2.409C2.332,0.067 2.517,0.317 4.724,0.37C7.369,0.432 10.02,0.322 12.681,0.391C14.915,0.449 14.998,0.097 15.565,2.198C15.899,3.433 16.527,3.877 17.63,3.349C18.815,2.783 20.201,2.402 20.839,1.04C20.257,1.09 19.789,1.403 19.322,1.71C17.848,2.681 16.563,3.059 15.82,0.856C15.578,0.137 14.86,-0.257 14.11,-0.291C10.54,-0.452 6.967,-0.34 3.396,-0.345C2.54,-0.347 1.792,0.151 1.492,0.92C0.734,2.865 -0.404,2.745 -1.832,1.721C-2.284,1.397 -2.766,1.104 -3.33,0.995C-2.724,2.486 -1.243,2.842 0,3.425" style="fill:rgb(215,215,215);fill-rule:nonzero;stroke:rgb(215,215,215);stroke-width:6px;"/>
                    </g>
                    <g transform="matrix(1,0,0,1,235.515,84.4219)">
                        <path d="M0,-0.538C0.007,-0.415 -0.017,-0.313 -0.053,-0.22C0.079,-0.103 0.211,0.014 0.342,0.13C0.343,0.13 0.343,0.131 0.343,0.131C0.344,0.141 0.345,0.15 0.345,0.159C0.412,0.196 0.479,0.242 0.547,0.311C0.612,0.648 0.574,0.974 0.446,1.291C0.979,0.592 1.568,-0.227 0.947,-1.022C0.316,-1.829 -0.468,-1.385 -1.085,-0.763C-0.641,-1.084 -0.281,-1.004 0,-0.538" style="fill:rgb(215,215,215);fill-rule:nonzero;stroke:rgb(215,215,215);stroke-width:6px;"/>
                    </g>
                </g>
            </g>
        </g>
    </g>
</svg>
