<svg width="173" height="141" viewBox="0 0 173 141" fill="none" xmlns="http://www.w3.org/2000/svg">
<path d="M173 17.1696C166.522 20.0347 159.65 21.9153 152.614 22.7489C159.943 18.3637 165.57 11.4197 168.22 3.14586C161.253 7.27322 153.631 10.1812 145.682 11.7442C139.208 4.8581 129.984 0.554565 119.775 0.554565C100.173 0.554565 84.2807 16.4194 84.2807 35.9867C84.2807 38.7642 84.595 41.4682 85.1998 44.0622C55.7019 42.584 29.5492 28.478 12.0431 7.04057C8.98857 12.2738 7.23829 18.361 7.23829 24.8538C7.23829 37.1471 13.5048 47.992 23.0279 54.3464C17.3916 54.1702 11.8792 52.6504 6.95109 49.914C6.94906 50.0624 6.94906 50.2109 6.94906 50.36C6.94906 67.5275 19.1834 81.8488 35.4197 85.104C30.1931 86.523 24.7108 86.7307 19.3915 85.7111C23.9078 99.7882 37.0159 110.032 52.5467 110.319C40.3996 119.822 25.0951 125.487 8.46686 125.487C5.60155 125.487 2.77679 125.319 0 124.991C15.7072 135.045 34.3635 140.911 54.4071 140.911C119.692 140.911 155.392 86.9187 155.392 40.096C155.392 38.5591 155.358 37.0311 155.289 35.5118C162.238 30.4971 168.235 24.2858 173 17.1696" fill="#55ACEE"/>
</svg>
