<svg width="23" height="23" viewBox="0 0 23 23" fill="none" xmlns="http://www.w3.org/2000/svg">
<path d="M11.25 14C17.463 14 22.5 16.3505 22.5 19.25V23H0V19.25C0 16.3505 5.037 14 11.25 14ZM21 19.25C21 17.18 16.635 15.5 11.25 15.5C5.865 15.5 1.5 17.18 1.5 19.25V21.5H21V19.25ZM11.25 0.5C12.6424 0.5 13.9777 1.05312 14.9623 2.03769C15.9469 3.02226 16.5 4.35761 16.5 5.75C16.5 7.14239 15.9469 8.47774 14.9623 9.46231C13.9777 10.4469 12.6424 11 11.25 11C9.85761 11 8.52226 10.4469 7.53769 9.46231C6.55312 8.47774 6 7.14239 6 5.75C6 4.35761 6.55312 3.02226 7.53769 2.03769C8.52226 1.05312 9.85761 0.5 11.25 0.5ZM11.25 2C10.2554 2 9.30161 2.39509 8.59835 3.09835C7.89509 3.80161 7.5 4.75544 7.5 5.75C7.5 6.74456 7.89509 7.69839 8.59835 8.40165C9.30161 9.10491 10.2554 9.5 11.25 9.5C12.2446 9.5 13.1984 9.10491 13.9017 8.40165C14.6049 7.69839 15 6.74456 15 5.75C15 4.75544 14.6049 3.80161 13.9017 3.09835C13.1984 2.39509 12.2446 2 11.25 2V2Z" fill="#DDDDDD"/>
</svg>
