<svg width="114" height="80" viewBox="0 0 114 80" fill="none" xmlns="http://www.w3.org/2000/svg">
<g clip-path="url(#clip0_204_36)">
<path d="M111.482 12.4778C110.828 10.066 109.553 7.86731 107.783 6.10057C106.013 4.33383 103.81 3.06072 101.393 2.408C92.5467 0 56.9422 0 56.9422 0C56.9422 0 21.3359 0.0728887 12.4893 2.48089C10.0728 3.13364 7.86984 4.40683 6.09973 6.17365C4.32961 7.94047 3.05414 10.1393 2.40032 12.5511C-0.275563 28.2391 -1.31359 52.144 2.4738 67.2045C3.12768 69.6162 4.40319 71.8149 6.1733 73.5817C7.94341 75.3484 10.1464 76.6215 12.5628 77.2742C21.4094 79.6822 57.0148 79.6822 57.0148 79.6822C57.0148 79.6822 92.6197 79.6822 101.466 77.2742C103.882 76.6216 106.085 75.3485 107.856 73.5818C109.626 71.815 110.901 69.6163 111.555 67.2045C114.378 51.4942 115.247 27.6044 111.482 12.4782V12.4778Z" fill="#FF0000"/>
<path d="M45.6094 56.9156L75.1461 39.8409L45.6094 22.7662V56.9156Z" fill="white"/>
</g>
<defs>
<clipPath id="clip0_204_36">
<rect width="114" height="80" fill="white"/>
</clipPath>
</defs>
</svg>
